<svg xmlns="http://www.w3.org/2000/svg" xmlns:v="https://svgstorm.com"
viewBox = "0 0 626 626"
width="626"
height="626">
<g fill="None" fill-opacity="0.0" stroke="#FEFEFE" stroke-opacity="1.00" stroke-width="0.3"><path d="
M 0.00 626.00 
L 626.00 626.00
L 626.00 0.00
L 0.00 0.00
L 0.00 626.00
M 398.00 192.00 
C 398.37 195.77 398.36 200.29 398.00 204.00
C 398.00 222.69 389.52 243.84 398.78 261.22 C 408.03 278.60 411.72 284.84 426.75 299.25 C 441.79 313.66 418.17 333.42 401.00 330.00
C 398.73 338.29 409.93 343.87 408.00 352.00 C 406.07 360.13 399.54 362.69 393.00 366.00
C 402.01 375.77 396.73 397.87 381.00 396.00
C 387.20 409.18 386.74 435.46 367.98 437.98 C 349.21 440.49 331.27 434.99 313.33 430.67 C 295.39 426.36 278.65 428.25 271.23 447.23 C 263.81 466.21 261.68 482.05 263.00 503.00
C 259.77 503.90 258.38 500.66 259.00 498.00
C 257.57 492.56 258.49 486.28 259.00 481.00
C 259.00 471.63 260.82 461.38 263.98 452.98 C 267.14 444.57 270.15 438.90 275.77 431.77 C 281.39 424.64 290.09 422.20 299.02 423.98 C 307.95 425.75 317.88 426.33 327.07 428.93 C 336.27 431.52 346.16 432.43 356.00 434.00 C 365.84 435.57 373.31 431.90 378.77 423.77 C 384.23 415.64 374.67 402.67 376.00 396.00 C 377.33 389.33 395.05 390.87 392.98 379.98 C 390.91 369.08 382.79 365.11 393.07 361.07 C 403.35 357.04 406.55 349.42 398.75 341.25 C 390.95 333.08 400.95 323.46 409.02 324.02 C 417.10 324.59 428.77 317.88 427.99 309.99 C 427.22 302.10 417.70 298.18 413.25 291.75 C 408.79 285.32 402.72 279.53 399.08 271.92 C 395.43 264.32 391.45 256.92 390.01 247.99 C 388.56 239.07 390.04 227.87 392.00 219.00 C 393.96 210.12 394.45 196.91 394.00 188.00 C 393.55 179.09 389.42 169.08 387.22 161.78 C 385.03 154.47 379.15 144.32 375.25 139.75 C 371.34 135.19 360.19 121.96 366.68 123.34 C 373.17 124.72 377.26 136.02 381.92 141.08 C 386.57 146.14 389.95 155.72 392.93 163.07 C 395.90 170.42 398.00 183.33 398.00 192.00
M 360.00 193.00 
C 356.69 192.82 353.32 193.00 350.00 193.00
C 344.38 193.00 337.67 194.46 332.78 195.78 C 327.88 197.10 319.72 202.02 319.00 195.00
C 325.71 192.68 331.80 190.93 339.00 190.00 C 346.20 189.07 355.24 186.28 363.00 188.00 C 370.76 189.72 373.52 191.41 379.75 197.25 C 385.99 203.09 381.35 210.41 377.23 201.77 C 373.11 193.13 367.25 195.20 360.00 193.00
M 379.00 234.00 
C 376.98 241.87 364.10 241.30 355.98 239.02 C 347.85 236.74 342.85 236.21 334.92 230.08 C 326.99 223.95 335.35 222.21 342.08 228.92 C 348.81 235.63 358.00 233.35 366.00 236.00
C 374.99 233.47 364.00 213.29 371.68 215.34 C 379.36 217.38 367.45 239.87 379.00 234.00
M 347.00 322.00 
C 347.60 325.72 347.52 329.36 347.00 333.00
C 346.62 343.08 346.28 342.64 341.69 352.69 C 337.11 362.75 325.26 373.17 315.31 377.31 C 305.35 381.44 302.98 380.89 294.00 382.00 C 285.02 383.11 280.25 378.34 272.98 378.02 C 265.70 377.71 263.11 367.63 257.00 368.00
C 254.46 371.30 251.31 374.56 248.00 377.00
C 247.24 381.95 251.86 390.76 246.08 395.08 C 240.30 399.40 239.16 403.36 234.75 407.75 C 230.34 412.15 227.16 415.89 223.25 420.25 C 219.34 424.61 213.33 429.96 207.00 428.00 C 200.67 426.04 194.63 423.78 194.07 415.93 C 193.52 408.07 193.17 405.54 200.75 398.75 C 208.33 391.97 218.60 383.08 226.25 376.25 C 233.89 369.42 236.88 372.15 245.00 374.00
C 247.38 370.20 251.68 367.76 254.00 364.00
C 229.37 339.06 238.68 294.37 270.23 279.23 C 301.77 264.08 345.29 285.12 347.00 322.00
M 365.00 294.00 
C 372.71 296.43 368.07 310.82 359.78 307.22 C 351.49 303.62 355.32 290.95 365.00 294.00
M 383.00 323.00 
C 386.11 324.58 382.99 329.81 380.00 328.00 C 377.00 326.18 380.35 321.66 383.00 323.00
M 362.00 333.00 
C 366.11 335.74 361.54 343.82 356.78 340.22 C 352.02 336.63 358.19 330.46 362.00 333.00
M 365.00 354.00 
C 372.71 356.89 367.69 371.29 359.33 367.67 C 350.97 364.05 355.94 350.61 365.00 354.00
M 319.00 386.00 
C 326.68 388.42 322.15 402.57 313.92 399.07 C 305.70 395.57 309.22 382.92 319.00 386.00
M 354.00 386.00 
C 358.50 387.98 354.32 396.75 349.33 393.67 C 344.34 390.59 348.87 383.75 354.00 386.00 Z"/>
</g>
<g fill="None" fill-opacity="0.0" stroke="#171717" stroke-opacity="1.00" stroke-width="0.3"><path d="
M 259.00 481.00 
C 259.00 486.49 258.26 492.57 259.00 498.00
C 258.38 500.66 259.77 503.90 263.00 503.00
C 261.68 482.05 263.81 466.21 271.23 447.23 C 278.65 428.25 295.39 426.36 313.33 430.67 C 331.27 434.99 349.21 440.49 367.98 437.98 C 386.74 435.46 387.20 409.18 381.00 396.00
C 396.73 397.87 402.01 375.77 393.00 366.00
C 399.54 362.69 406.07 360.13 408.00 352.00 C 409.93 343.87 398.73 338.29 401.00 330.00
C 418.17 333.42 441.79 313.66 426.75 299.25 C 411.72 284.84 408.03 278.60 398.78 261.22 C 389.52 243.84 398.00 222.69 398.00 204.00
C 398.00 200.00 398.00 196.00 398.00 192.00
C 398.00 183.33 395.90 170.42 392.93 163.07 C 389.95 155.72 386.57 146.14 381.92 141.08 C 377.26 136.02 373.17 124.72 366.68 123.34 C 360.19 121.96 371.34 135.19 375.25 139.75 C 379.15 144.32 385.03 154.47 387.22 161.78 C 389.42 169.08 393.55 179.09 394.00 188.00 C 394.45 196.91 393.96 210.12 392.00 219.00 C 390.04 227.87 388.56 239.07 390.01 247.99 C 391.45 256.92 395.43 264.32 399.08 271.92 C 402.72 279.53 408.79 285.32 413.25 291.75 C 417.70 298.18 427.22 302.10 427.99 309.99 C 428.77 317.88 417.10 324.59 409.02 324.02 C 400.95 323.46 390.95 333.08 398.75 341.25 C 406.55 349.42 403.35 357.04 393.07 361.07 C 382.79 365.11 390.91 369.08 392.98 379.98 C 395.05 390.87 377.33 389.33 376.00 396.00 C 374.67 402.67 384.23 415.64 378.77 423.77 C 373.31 431.90 365.84 435.57 356.00 434.00 C 346.16 432.43 336.27 431.52 327.07 428.93 C 317.88 426.33 307.95 425.75 299.02 423.98 C 290.09 422.20 281.39 424.64 275.77 431.77 C 270.15 438.90 267.14 444.57 263.98 452.98 C 260.82 461.38 259.00 471.63 259.00 481.00 Z"/>
</g>
<g fill="None" fill-opacity="0.0" stroke="#151515" stroke-opacity="1.00" stroke-width="0.3"><path d="
M 350.00 193.00 
C 353.28 192.68 356.70 192.46 360.00 193.00
C 367.25 195.20 373.11 193.13 377.23 201.77 C 381.35 210.41 385.99 203.09 379.75 197.25 C 373.52 191.41 370.76 189.72 363.00 188.00 C 355.24 186.28 346.20 189.07 339.00 190.00 C 331.80 190.93 325.71 192.68 319.00 195.00
C 319.72 202.02 327.88 197.10 332.78 195.78 C 337.67 194.46 344.38 193.00 350.00 193.00 Z"/>
</g>
<g fill="None" fill-opacity="0.0" stroke="#888888" stroke-opacity="1.00" stroke-width="0.3"><path d="
M 350.00 193.00 
C 353.32 193.00 356.69 192.82 360.00 193.00
C 356.70 192.46 353.28 192.68 350.00 193.00 Z"/>
</g>
<g fill="None" fill-opacity="0.0" stroke="#919191" stroke-opacity="1.00" stroke-width="0.3"><path d="
M 398.00 204.00 
C 398.36 200.29 398.37 195.77 398.00 192.00
C 398.00 196.00 398.00 200.00 398.00 204.00 Z"/>
</g>
<g fill="None" fill-opacity="0.0" stroke="#181818" stroke-opacity="1.00" stroke-width="0.3"><path d="
M 379.00 234.00 
C 367.45 239.87 379.36 217.38 371.68 215.34 C 364.00 213.29 374.99 233.47 366.00 236.00
C 358.00 233.35 348.81 235.63 342.08 228.92 C 335.35 222.21 326.99 223.95 334.92 230.08 C 342.85 236.21 347.85 236.74 355.98 239.02 C 364.10 241.30 376.98 241.87 379.00 234.00 Z"/>
</g>
<g fill="None" fill-opacity="0.0" stroke="#171717" stroke-opacity="1.00" stroke-width="0.3"><path d="
M 248.00 377.00 
C 248.26 375.29 255.33 368.10 257.00 368.00
C 263.11 367.63 265.70 377.71 272.98 378.02 C 280.25 378.34 285.02 383.11 294.00 382.00 C 302.98 380.89 305.35 381.44 315.31 377.31 C 325.26 373.17 337.11 362.75 341.69 352.69 C 346.28 342.64 346.62 343.08 347.00 333.00
C 347.14 329.39 347.20 325.61 347.00 322.00
C 345.29 285.12 301.77 264.08 270.23 279.23 C 238.68 294.37 229.37 339.06 254.00 364.00
C 251.68 367.76 247.38 370.20 245.00 374.00
C 236.88 372.15 233.89 369.42 226.25 376.25 C 218.60 383.08 208.33 391.97 200.75 398.75 C 193.17 405.54 193.52 408.07 194.07 415.93 C 194.63 423.78 200.67 426.04 207.00 428.00 C 213.33 429.96 219.34 424.61 223.25 420.25 C 227.16 415.89 230.34 412.15 234.75 407.75 C 239.16 403.36 240.30 399.40 246.08 395.08 C 251.86 390.76 247.24 381.95 248.00 377.00
M 245.00 333.00 
C 244.50 329.91 244.64 326.98 245.00 324.00
C 245.73 287.59 289.91 267.30 319.75 286.25 C 349.58 305.21 350.40 349.13 320.92 368.92 C 291.44 388.71 246.98 369.47 245.00 333.00
M 239.00 376.00 
C 251.43 379.15 242.34 393.45 236.25 399.25 C 230.16 405.05 224.24 411.44 218.25 419.25 C 212.25 427.06 196.22 420.96 198.00 411.00 C 199.78 401.03 210.26 396.76 216.25 391.25 C 222.23 385.73 230.58 373.87 239.00 376.00 Z"/>
</g>
<g fill="None" fill-opacity="0.0" stroke="#FBFBFB" stroke-opacity="1.00" stroke-width="0.3"><path d="
M 245.00 324.00 
C 244.94 326.97 244.84 330.03 245.00 333.00
C 246.98 369.47 291.44 388.71 320.92 368.92 C 350.40 349.13 349.58 305.21 319.75 286.25 C 289.91 267.30 245.73 287.59 245.00 324.00
M 284.00 296.00 
C 289.00 297.49 286.58 306.88 280.99 304.99 C 275.40 303.10 278.40 294.33 284.00 296.00
M 300.00 316.00 
C 307.58 318.96 301.01 333.46 293.33 328.67 C 285.65 323.88 291.87 312.83 300.00 316.00
M 332.00 323.00 
C 335.07 324.60 331.95 329.96 329.00 328.00 C 326.04 326.03 328.76 321.31 332.00 323.00
M 266.00 324.00 
C 270.73 326.08 265.94 334.78 261.33 331.67 C 256.71 328.56 261.03 321.82 266.00 324.00
M 290.00 354.00 
C 293.65 355.30 291.46 362.45 287.32 360.66 C 283.18 358.87 285.95 352.56 290.00 354.00 Z"/>
</g>
<g fill="None" fill-opacity="0.0" stroke="#191919" stroke-opacity="1.00" stroke-width="0.3"><path d="
M 365.00 294.00 
C 355.32 290.95 351.49 303.62 359.78 307.22 C 368.07 310.82 372.71 296.43 365.00 294.00 Z"/>
</g>
<g fill="None" fill-opacity="0.0" stroke="#212121" stroke-opacity="1.00" stroke-width="0.3"><path d="
M 284.00 296.00 
C 278.40 294.33 275.40 303.10 280.99 304.99 C 286.58 306.88 289.00 297.49 284.00 296.00 Z"/>
</g>
<g fill="None" fill-opacity="0.0" stroke="#121212" stroke-opacity="1.00" stroke-width="0.3"><path d="
M 300.00 316.00 
C 291.87 312.83 285.65 323.88 293.33 328.67 C 301.01 333.46 307.58 318.96 300.00 316.00 Z"/>
</g>
<g fill="None" fill-opacity="0.0" stroke="#757575" stroke-opacity="1.00" stroke-width="0.3"><path d="
M 347.00 333.00 
C 347.52 329.36 347.60 325.72 347.00 322.00
C 347.20 325.61 347.14 329.39 347.00 333.00 Z"/>
</g>
<g fill="None" fill-opacity="0.0" stroke="#121212" stroke-opacity="1.00" stroke-width="0.3"><path d="
M 332.00 323.00 
C 328.76 321.31 326.04 326.03 329.00 328.00 C 331.95 329.96 335.07 324.60 332.00 323.00 Z"/>
</g>
<g fill="None" fill-opacity="0.0" stroke="#101010" stroke-opacity="1.00" stroke-width="0.3"><path d="
M 383.00 323.00 
C 380.35 321.66 377.00 326.18 380.00 328.00 C 382.99 329.81 386.11 324.58 383.00 323.00 Z"/>
</g>
<g fill="None" fill-opacity="0.0" stroke="#8A8A8A" stroke-opacity="1.00" stroke-width="0.3"><path d="
M 245.00 333.00 
C 244.84 330.03 244.94 326.97 245.00 324.00
C 244.64 326.98 244.50 329.91 245.00 333.00 Z"/>
</g>
<g fill="None" fill-opacity="0.0" stroke="#131313" stroke-opacity="1.00" stroke-width="0.3"><path d="
M 266.00 324.00 
C 261.03 321.82 256.71 328.56 261.33 331.67 C 265.94 334.78 270.73 326.08 266.00 324.00 Z"/>
</g>
<g fill="None" fill-opacity="0.0" stroke="#171717" stroke-opacity="1.00" stroke-width="0.3"><path d="
M 362.00 333.00 
C 358.19 330.46 352.02 336.63 356.78 340.22 C 361.54 343.82 366.11 335.74 362.00 333.00 Z"/>
</g>
<g fill="None" fill-opacity="0.0" stroke="#191919" stroke-opacity="1.00" stroke-width="0.3"><path d="
M 290.00 354.00 
C 285.95 352.56 283.18 358.87 287.32 360.66 C 291.46 362.45 293.65 355.30 290.00 354.00 Z"/>
</g>
<g fill="None" fill-opacity="0.0" stroke="#191919" stroke-opacity="1.00" stroke-width="0.3"><path d="
M 365.00 354.00 
C 355.94 350.61 350.97 364.05 359.33 367.67 C 367.69 371.29 372.71 356.89 365.00 354.00 Z"/>
</g>
<g fill="None" fill-opacity="0.0" stroke="#838383" stroke-opacity="1.00" stroke-width="0.3"><path d="
M 248.00 377.00 
C 251.31 374.56 254.46 371.30 257.00 368.00
C 255.33 368.10 248.26 375.29 248.00 377.00 Z"/>
</g>
<g fill="None" fill-opacity="0.0" stroke="#F7F7F7" stroke-opacity="1.00" stroke-width="0.3"><path d="
M 239.00 376.00 
C 230.58 373.87 222.23 385.73 216.25 391.25 C 210.26 396.76 199.78 401.03 198.00 411.00 C 196.22 420.96 212.25 427.06 218.25 419.25 C 224.24 411.44 230.16 405.05 236.25 399.25 C 242.34 393.45 251.43 379.15 239.00 376.00 Z"/>
</g>
<g fill="None" fill-opacity="0.0" stroke="#171717" stroke-opacity="1.00" stroke-width="0.3"><path d="
M 319.00 386.00 
C 309.22 382.92 305.70 395.57 313.92 399.07 C 322.15 402.57 326.68 388.42 319.00 386.00 Z"/>
</g>
<g fill="None" fill-opacity="0.0" stroke="#1C1C1C" stroke-opacity="1.00" stroke-width="0.3"><path d="
M 354.00 386.00 
C 348.87 383.75 344.34 390.59 349.33 393.67 C 354.32 396.75 358.50 387.98 354.00 386.00 Z"/>
</g>
<g fill="None" fill-opacity="0.0" stroke="#747474" stroke-opacity="1.00" stroke-width="0.3"><path d="
M 259.00 498.00 
C 258.26 492.57 259.00 486.49 259.00 481.00
C 258.49 486.28 257.57 492.56 259.00 498.00 Z"/>
</g>
<g fill="#FEFEFE" fill-opacity="1.00" stroke="None">
<path d="
M 0.00 626.00 
L 626.00 626.00
L 626.00 0.00
L 0.00 0.00
L 0.00 626.00
M 398.00 192.00 
C 398.37 195.77 398.36 200.29 398.00 204.00
C 398.00 222.69 389.52 243.84 398.78 261.22 C 408.03 278.60 411.72 284.84 426.75 299.25 C 441.79 313.66 418.17 333.42 401.00 330.00
C 398.73 338.29 409.93 343.87 408.00 352.00 C 406.07 360.13 399.54 362.69 393.00 366.00
C 402.01 375.77 396.73 397.87 381.00 396.00
C 387.20 409.18 386.74 435.46 367.98 437.98 C 349.21 440.49 331.27 434.99 313.33 430.67 C 295.39 426.36 278.65 428.25 271.23 447.23 C 263.81 466.21 261.68 482.05 263.00 503.00
C 259.77 503.90 258.38 500.66 259.00 498.00
C 257.57 492.56 258.49 486.28 259.00 481.00
C 259.00 471.63 260.82 461.38 263.98 452.98 C 267.14 444.57 270.15 438.90 275.77 431.77 C 281.39 424.64 290.09 422.20 299.02 423.98 C 307.95 425.75 317.88 426.33 327.07 428.93 C 336.27 431.52 346.16 432.43 356.00 434.00 C 365.84 435.57 373.31 431.90 378.77 423.77 C 384.23 415.64 374.67 402.67 376.00 396.00 C 377.33 389.33 395.05 390.87 392.98 379.98 C 390.91 369.08 382.79 365.11 393.07 361.07 C 403.35 357.04 406.55 349.42 398.75 341.25 C 390.95 333.08 400.95 323.46 409.02 324.02 C 417.10 324.59 428.77 317.88 427.99 309.99 C 427.22 302.10 417.70 298.18 413.25 291.75 C 408.79 285.32 402.72 279.53 399.08 271.92 C 395.43 264.32 391.45 256.92 390.01 247.99 C 388.56 239.07 390.04 227.87 392.00 219.00 C 393.96 210.12 394.45 196.91 394.00 188.00 C 393.55 179.09 389.42 169.08 387.22 161.78 C 385.03 154.47 379.15 144.32 375.25 139.75 C 371.34 135.19 360.19 121.96 366.68 123.34 C 373.17 124.72 377.26 136.02 381.92 141.08 C 386.57 146.14 389.95 155.72 392.93 163.07 C 395.90 170.42 398.00 183.33 398.00 192.00
M 360.00 193.00 
C 356.69 192.82 353.32 193.00 350.00 193.00
C 344.38 193.00 337.67 194.46 332.78 195.78 C 327.88 197.10 319.72 202.02 319.00 195.00
C 325.71 192.68 331.80 190.93 339.00 190.00 C 346.20 189.07 355.24 186.28 363.00 188.00 C 370.76 189.72 373.52 191.41 379.75 197.25 C 385.99 203.09 381.35 210.41 377.23 201.77 C 373.11 193.13 367.25 195.20 360.00 193.00
M 379.00 234.00 
C 376.98 241.87 364.10 241.30 355.98 239.02 C 347.85 236.74 342.85 236.21 334.92 230.08 C 326.99 223.95 335.35 222.21 342.08 228.92 C 348.81 235.63 358.00 233.35 366.00 236.00
C 374.99 233.47 364.00 213.29 371.68 215.34 C 379.36 217.38 367.45 239.87 379.00 234.00
M 347.00 322.00 
C 347.60 325.72 347.52 329.36 347.00 333.00
C 346.62 343.08 346.28 342.64 341.69 352.69 C 337.11 362.75 325.26 373.17 315.31 377.31 C 305.35 381.44 302.98 380.89 294.00 382.00 C 285.02 383.11 280.25 378.34 272.98 378.02 C 265.70 377.71 263.11 367.63 257.00 368.00
C 254.46 371.30 251.31 374.56 248.00 377.00
C 247.24 381.95 251.86 390.76 246.08 395.08 C 240.30 399.40 239.16 403.36 234.75 407.75 C 230.34 412.15 227.16 415.89 223.25 420.25 C 219.34 424.61 213.33 429.96 207.00 428.00 C 200.67 426.04 194.63 423.78 194.07 415.93 C 193.52 408.07 193.17 405.54 200.75 398.75 C 208.33 391.97 218.60 383.08 226.25 376.25 C 233.89 369.42 236.88 372.15 245.00 374.00
C 247.38 370.20 251.68 367.76 254.00 364.00
C 229.37 339.06 238.68 294.37 270.23 279.23 C 301.77 264.08 345.29 285.12 347.00 322.00
M 365.00 294.00 
C 372.71 296.43 368.07 310.82 359.78 307.22 C 351.49 303.62 355.32 290.95 365.00 294.00
M 383.00 323.00 
C 386.11 324.58 382.99 329.81 380.00 328.00 C 377.00 326.18 380.35 321.66 383.00 323.00
M 362.00 333.00 
C 366.11 335.74 361.54 343.82 356.78 340.22 C 352.02 336.63 358.19 330.46 362.00 333.00
M 365.00 354.00 
C 372.71 356.89 367.69 371.29 359.33 367.67 C 350.97 364.05 355.94 350.61 365.00 354.00
M 319.00 386.00 
C 326.68 388.42 322.15 402.57 313.92 399.07 C 305.70 395.57 309.22 382.92 319.00 386.00
M 354.00 386.00 
C 358.50 387.98 354.32 396.75 349.33 393.67 C 344.34 390.59 348.87 383.75 354.00 386.00 Z"/>
</g>
<g fill="#171717" fill-opacity="1.00" stroke="None">
<path d="
M 259.00 481.00 
C 259.00 486.49 258.26 492.57 259.00 498.00
C 258.38 500.66 259.77 503.90 263.00 503.00
C 261.68 482.05 263.81 466.21 271.23 447.23 C 278.65 428.25 295.39 426.36 313.33 430.67 C 331.27 434.99 349.21 440.49 367.98 437.98 C 386.74 435.46 387.20 409.18 381.00 396.00
C 396.73 397.87 402.01 375.77 393.00 366.00
C 399.54 362.69 406.07 360.13 408.00 352.00 C 409.93 343.87 398.73 338.29 401.00 330.00
C 418.17 333.42 441.79 313.66 426.75 299.25 C 411.72 284.84 408.03 278.60 398.78 261.22 C 389.52 243.84 398.00 222.69 398.00 204.00
C 398.00 200.00 398.00 196.00 398.00 192.00
C 398.00 183.33 395.90 170.42 392.93 163.07 C 389.95 155.72 386.57 146.14 381.92 141.08 C 377.26 136.02 373.17 124.72 366.68 123.34 C 360.19 121.96 371.34 135.19 375.25 139.75 C 379.15 144.32 385.03 154.47 387.22 161.78 C 389.42 169.08 393.55 179.09 394.00 188.00 C 394.45 196.91 393.96 210.12 392.00 219.00 C 390.04 227.87 388.56 239.07 390.01 247.99 C 391.45 256.92 395.43 264.32 399.08 271.92 C 402.72 279.53 408.79 285.32 413.25 291.75 C 417.70 298.18 427.22 302.10 427.99 309.99 C 428.77 317.88 417.10 324.59 409.02 324.02 C 400.95 323.46 390.95 333.08 398.75 341.25 C 406.55 349.42 403.35 357.04 393.07 361.07 C 382.79 365.11 390.91 369.08 392.98 379.98 C 395.05 390.87 377.33 389.33 376.00 396.00 C 374.67 402.67 384.23 415.64 378.77 423.77 C 373.31 431.90 365.84 435.57 356.00 434.00 C 346.16 432.43 336.27 431.52 327.07 428.93 C 317.88 426.33 307.95 425.75 299.02 423.98 C 290.09 422.20 281.39 424.64 275.77 431.77 C 270.15 438.90 267.14 444.57 263.98 452.98 C 260.82 461.38 259.00 471.63 259.00 481.00 Z"/>
</g>
<g fill="#151515" fill-opacity="1.00" stroke="None">
<path d="
M 350.00 193.00 
C 353.28 192.68 356.70 192.46 360.00 193.00
C 367.25 195.20 373.11 193.13 377.23 201.77 C 381.35 210.41 385.99 203.09 379.75 197.25 C 373.52 191.41 370.76 189.72 363.00 188.00 C 355.24 186.28 346.20 189.07 339.00 190.00 C 331.80 190.93 325.71 192.68 319.00 195.00
C 319.72 202.02 327.88 197.10 332.78 195.78 C 337.67 194.46 344.38 193.00 350.00 193.00 Z"/>
</g>
<g fill="#888888" fill-opacity="1.00" stroke="None">
<path d="
M 350.00 193.00 
C 353.32 193.00 356.69 192.82 360.00 193.00
C 356.70 192.46 353.28 192.68 350.00 193.00 Z"/>
</g>
<g fill="#919191" fill-opacity="1.00" stroke="None">
<path d="
M 398.00 204.00 
C 398.36 200.29 398.37 195.77 398.00 192.00
C 398.00 196.00 398.00 200.00 398.00 204.00 Z"/>
</g>
<g fill="#181818" fill-opacity="1.00" stroke="None">
<path d="
M 379.00 234.00 
C 367.45 239.87 379.36 217.38 371.68 215.34 C 364.00 213.29 374.99 233.47 366.00 236.00
C 358.00 233.35 348.81 235.63 342.08 228.92 C 335.35 222.21 326.99 223.95 334.92 230.08 C 342.85 236.21 347.85 236.74 355.98 239.02 C 364.10 241.30 376.98 241.87 379.00 234.00 Z"/>
</g>
<g fill="#171717" fill-opacity="1.00" stroke="None">
<path d="
M 248.00 377.00 
C 248.26 375.29 255.33 368.10 257.00 368.00
C 263.11 367.63 265.70 377.71 272.98 378.02 C 280.25 378.34 285.02 383.11 294.00 382.00 C 302.98 380.89 305.35 381.44 315.31 377.31 C 325.26 373.17 337.11 362.75 341.69 352.69 C 346.28 342.64 346.62 343.08 347.00 333.00
C 347.14 329.39 347.20 325.61 347.00 322.00
C 345.29 285.12 301.77 264.08 270.23 279.23 C 238.68 294.37 229.37 339.06 254.00 364.00
C 251.68 367.76 247.38 370.20 245.00 374.00
C 236.88 372.15 233.89 369.42 226.25 376.25 C 218.60 383.08 208.33 391.97 200.75 398.75 C 193.17 405.54 193.52 408.07 194.07 415.93 C 194.63 423.78 200.67 426.04 207.00 428.00 C 213.33 429.96 219.34 424.61 223.25 420.25 C 227.16 415.89 230.34 412.15 234.75 407.75 C 239.16 403.36 240.30 399.40 246.08 395.08 C 251.86 390.76 247.24 381.95 248.00 377.00
M 245.00 333.00 
C 244.50 329.91 244.64 326.98 245.00 324.00
C 245.73 287.59 289.91 267.30 319.75 286.25 C 349.58 305.21 350.40 349.13 320.92 368.92 C 291.44 388.71 246.98 369.47 245.00 333.00
M 239.00 376.00 
C 251.43 379.15 242.34 393.45 236.25 399.25 C 230.16 405.05 224.24 411.44 218.25 419.25 C 212.25 427.06 196.22 420.96 198.00 411.00 C 199.78 401.03 210.26 396.76 216.25 391.25 C 222.23 385.73 230.58 373.87 239.00 376.00 Z"/>
</g>
<g fill="#FBFBFB" fill-opacity="1.00" stroke="None">
<path d="
M 245.00 324.00 
C 244.94 326.97 244.84 330.03 245.00 333.00
C 246.98 369.47 291.44 388.71 320.92 368.92 C 350.40 349.13 349.58 305.21 319.75 286.25 C 289.91 267.30 245.73 287.59 245.00 324.00
M 284.00 296.00 
C 289.00 297.49 286.58 306.88 280.99 304.99 C 275.40 303.10 278.40 294.33 284.00 296.00
M 300.00 316.00 
C 307.58 318.96 301.01 333.46 293.33 328.67 C 285.65 323.88 291.87 312.83 300.00 316.00
M 332.00 323.00 
C 335.07 324.60 331.95 329.96 329.00 328.00 C 326.04 326.03 328.76 321.31 332.00 323.00
M 266.00 324.00 
C 270.73 326.08 265.94 334.78 261.33 331.67 C 256.71 328.56 261.03 321.82 266.00 324.00
M 290.00 354.00 
C 293.65 355.30 291.46 362.45 287.32 360.66 C 283.18 358.87 285.95 352.56 290.00 354.00 Z"/>
</g>
<g fill="#191919" fill-opacity="1.00" stroke="None">
<path d="
M 365.00 294.00 
C 355.32 290.95 351.49 303.62 359.78 307.22 C 368.07 310.82 372.71 296.43 365.00 294.00 Z"/>
</g>
<g fill="#212121" fill-opacity="1.00" stroke="None">
<path d="
M 284.00 296.00 
C 278.40 294.33 275.40 303.10 280.99 304.99 C 286.58 306.88 289.00 297.49 284.00 296.00 Z"/>
</g>
<g fill="#121212" fill-opacity="1.00" stroke="None">
<path d="
M 300.00 316.00 
C 291.87 312.83 285.65 323.88 293.33 328.67 C 301.01 333.46 307.58 318.96 300.00 316.00 Z"/>
</g>
<g fill="#757575" fill-opacity="1.00" stroke="None">
<path d="
M 347.00 333.00 
C 347.52 329.36 347.60 325.72 347.00 322.00
C 347.20 325.61 347.14 329.39 347.00 333.00 Z"/>
</g>
<g fill="#121212" fill-opacity="1.00" stroke="None">
<path d="
M 332.00 323.00 
C 328.76 321.31 326.04 326.03 329.00 328.00 C 331.95 329.96 335.07 324.60 332.00 323.00 Z"/>
</g>
<g fill="#101010" fill-opacity="1.00" stroke="None">
<path d="
M 383.00 323.00 
C 380.35 321.66 377.00 326.18 380.00 328.00 C 382.99 329.81 386.11 324.58 383.00 323.00 Z"/>
</g>
<g fill="#8A8A8A" fill-opacity="1.00" stroke="None">
<path d="
M 245.00 333.00 
C 244.84 330.03 244.94 326.97 245.00 324.00
C 244.64 326.98 244.50 329.91 245.00 333.00 Z"/>
</g>
<g fill="#131313" fill-opacity="1.00" stroke="None">
<path d="
M 266.00 324.00 
C 261.03 321.82 256.71 328.56 261.33 331.67 C 265.94 334.78 270.73 326.08 266.00 324.00 Z"/>
</g>
<g fill="#171717" fill-opacity="1.00" stroke="None">
<path d="
M 362.00 333.00 
C 358.19 330.46 352.02 336.63 356.78 340.22 C 361.54 343.82 366.11 335.74 362.00 333.00 Z"/>
</g>
<g fill="#191919" fill-opacity="1.00" stroke="None">
<path d="
M 290.00 354.00 
C 285.95 352.56 283.18 358.87 287.32 360.66 C 291.46 362.45 293.65 355.30 290.00 354.00 Z"/>
</g>
<g fill="#191919" fill-opacity="1.00" stroke="None">
<path d="
M 365.00 354.00 
C 355.94 350.61 350.97 364.05 359.33 367.67 C 367.69 371.29 372.71 356.89 365.00 354.00 Z"/>
</g>
<g fill="#838383" fill-opacity="1.00" stroke="None">
<path d="
M 248.00 377.00 
C 251.31 374.56 254.46 371.30 257.00 368.00
C 255.33 368.10 248.26 375.29 248.00 377.00 Z"/>
</g>
<g fill="#F7F7F7" fill-opacity="1.00" stroke="None">
<path d="
M 239.00 376.00 
C 230.58 373.87 222.23 385.73 216.25 391.25 C 210.26 396.76 199.78 401.03 198.00 411.00 C 196.22 420.96 212.25 427.06 218.25 419.25 C 224.24 411.44 230.16 405.05 236.25 399.25 C 242.34 393.45 251.43 379.15 239.00 376.00 Z"/>
</g>
<g fill="#171717" fill-opacity="1.00" stroke="None">
<path d="
M 319.00 386.00 
C 309.22 382.92 305.70 395.57 313.92 399.07 C 322.15 402.57 326.68 388.42 319.00 386.00 Z"/>
</g>
<g fill="#1C1C1C" fill-opacity="1.00" stroke="None">
<path d="
M 354.00 386.00 
C 348.87 383.75 344.34 390.59 349.33 393.67 C 354.32 396.75 358.50 387.98 354.00 386.00 Z"/>
</g>
<g fill="#747474" fill-opacity="1.00" stroke="None">
<path d="
M 259.00 498.00 
C 258.26 492.57 259.00 486.49 259.00 481.00
C 258.49 486.28 257.57 492.56 259.00 498.00 Z"/>
</g>
</svg>