<svg xmlns="http://www.w3.org/2000/svg" xmlns:xlink="http://www.w3.org/1999/xlink" width="800" zoomAndPan="magnify" viewBox="0 0 600 599.999999" height="800" preserveAspectRatio="xMidYMid meet" version="1.0"><defs><clipPath id="af69918f7a"><path d="M 23 4.183594 L 577 4.183594 L 577 594 L 23 594 Z M 23 4.183594 " clip-rule="nonzero"/></clipPath></defs><rect x="-60" width="720" fill="#ffffff" y="-60" height="719.999999" fill-opacity="1"/><rect x="-60" width="720" fill="#ffffff" y="-60" height="719.999999" fill-opacity="1"/><g clip-path="url(#af69918f7a)"><path fill="#000000" d="M 576.167969 371.640625 C 575.265625 343.246094 569.78125 311.007812 559.632812 274.515625 C 559.222656 272.960938 558.734375 271.488281 558.324219 270.015625 C 558.40625 266.414062 558.160156 263.222656 557.832031 260.851562 C 544.410156 163.402344 503.730469 98.433594 453.394531 58.09375 C 405.839844 19.964844 349.691406 4.011719 299.683594 4.011719 C 259.578125 4.011719 217.015625 16.691406 178.21875 40.339844 C 108.976562 82.476562 51.683594 159.308594 41.617188 261.179688 C 41.371094 263.960938 41.617188 266.90625 42.269531 269.851562 C 42.023438 270.753906 41.777344 271.652344 41.453125 272.550781 C 30.976562 310.4375 25 343.820312 23.609375 372.867188 C 21.398438 417.625 29.910156 452.398438 49.226562 477.761719 C 67.070312 501.246094 93.015625 515.566406 124.28125 524.320312 C 141.0625 529.066406 159.230469 532.175781 178.628906 534.222656 C 195.980469 552.46875 215.214844 567.03125 235.269531 577.179688 C 256.386719 587.898438 278.320312 593.789062 299.683594 593.789062 C 321.046875 593.789062 342.898438 587.976562 364.015625 577.257812 C 384.394531 566.867188 404.039062 551.976562 421.71875 533.238281 C 442.507812 530.539062 462.316406 526.449219 480.484375 520.230469 C 508.230469 510.65625 531.96875 496.089844 548.992188 473.753906 C 568.554688 447.898438 577.558594 414.105469 576.167969 371.640625 Z M 542.527344 449.617188 C 540.070312 454.117188 537.371094 458.453125 534.261719 462.542969 C 533.441406 463.609375 532.625 464.589844 531.804688 465.570312 C 510.851562 491.019531 477.949219 504.519531 439.808594 511.71875 C 456.011719 490.117188 469.765625 464.835938 479.667969 436.851562 C 501.847656 433.578125 523.785156 403.550781 532.867188 362.882812 C 535.488281 351.265625 536.796875 339.890625 536.796875 328.929688 C 536.796875 323.691406 536.46875 318.863281 535.898438 314.199219 C 539.90625 312.316406 543.589844 309.617188 546.621094 306.097656 C 547.109375 305.527344 547.601562 304.871094 548.09375 304.21875 C 562.90625 367.792969 561.023438 415.742188 542.527344 449.617188 Z M 392.988281 536.019531 C 364.097656 561.058594 331.277344 575.378906 299.765625 575.378906 C 268.5 575.378906 235.839844 561.222656 207.113281 536.511719 C 203.511719 533.402344 199.910156 530.046875 196.390625 526.613281 C 193.117188 523.421875 189.925781 520.066406 186.8125 516.546875 C 166.597656 493.882812 149.492188 465.570312 137.785156 433.089844 C 136.722656 430.0625 135.660156 427.035156 134.675781 423.925781 C 133.613281 420.652344 132.628906 417.296875 131.648438 413.859375 C 124.855469 389.558594 120.925781 363.375 120.925781 335.800781 C 120.925781 327.535156 121.335938 319.601562 121.828125 311.828125 C 122.152344 306.917969 122.5625 302.089844 123.136719 297.34375 C 123.464844 294.808594 123.789062 292.351562 124.117188 289.898438 C 125.429688 289.570312 126.738281 289.242188 128.046875 289 C 148.835938 284.089844 171.589844 277.542969 189.351562 270.671875 C 304.757812 225.667969 360.167969 171.09375 375.964844 153.582031 C 392.828125 161.847656 440.707031 188.929688 456.914062 237.367188 C 459.449219 244.894531 461.578125 251.6875 463.542969 257.90625 C 467.0625 269.035156 470.089844 278.605469 473.527344 286.625 C 474.101562 287.933594 474.675781 289.242188 475.246094 290.472656 C 475.574219 292.761719 475.902344 295.136719 476.148438 297.507812 C 476.722656 302.253906 477.128906 307.082031 477.457031 311.992188 C 478.03125 319.765625 478.359375 327.617188 478.359375 335.964844 C 478.359375 363.621094 474.511719 389.804688 467.636719 414.023438 C 466.652344 417.378906 465.671875 420.734375 464.605469 424.085938 C 463.625 427.195312 462.5625 430.222656 461.496094 433.25 C 449.957031 465.328125 433.097656 493.308594 413.289062 515.8125 C 410.097656 519.410156 406.824219 522.847656 403.546875 526.121094 C 400.191406 529.476562 396.671875 532.828125 392.988281 536.019531 Z M 83.441406 485.453125 C 75.992188 480.054688 69.445312 473.835938 63.960938 466.554688 C 56.839844 457.144531 51.4375 446.179688 47.671875 433.496094 C 37.441406 398.804688 40.222656 351.59375 55.773438 290.796875 C 59.292969 293.582031 63.304688 295.625 67.480469 296.773438 C 64.289062 305.609375 62.570312 316.492188 62.570312 328.847656 C 62.570312 339.808594 63.878906 351.265625 66.496094 362.800781 C 75.664062 403.46875 97.519531 433.496094 119.699219 436.769531 C 129.847656 465.488281 144.089844 491.265625 160.867188 513.273438 C 130.175781 508.527344 103.574219 500.101562 83.441406 485.453125 Z M 223.320312 39.195312 C 249.511719 28.230469 275.621094 22.585938 298.945312 22.421875 C 299.191406 22.421875 299.4375 22.421875 299.683594 22.421875 C 299.765625 22.421875 299.929688 22.421875 300.011719 22.421875 C 312.042969 22.421875 324.484375 23.484375 337.085938 25.613281 L 338.96875 33.222656 L 341.261719 42.550781 L 354.847656 96.960938 L 357.46875 107.269531 L 369.089844 104.324219 L 375.3125 102.769531 L 360.90625 45.003906 L 358.53125 35.511719 L 357.140625 29.867188 C 372.445312 33.875 387.75 39.601562 402.648438 47.210938 C 438.332031 65.378906 471.726562 94.34375 497.101562 136.5625 C 506.757812 152.601562 515.269531 170.601562 522.226562 190.566406 C 529.839844 212.332031 535.734375 236.386719 539.417969 263.144531 C 539.664062 265.1875 539.824219 268.378906 539.582031 271.898438 C 539.171875 279.179688 537.371094 288.261719 532.625 293.746094 C 532.214844 294.234375 531.722656 294.644531 531.230469 295.054688 C 528.941406 297.097656 526.15625 298.246094 522.71875 298.570312 C 522.226562 298.816406 521.65625 298.898438 521 298.898438 C 517.890625 298.898438 515.191406 298.816406 512.652344 298.488281 C 505.613281 297.753906 500.867188 295.625 497.019531 290.878906 C 495.628906 289.242188 494.316406 287.28125 493.089844 284.90625 C 492.761719 284.335938 492.515625 283.679688 492.191406 283.105469 C 491.042969 280.652344 489.816406 277.871094 488.589844 274.679688 C 486.378906 268.707031 484.003906 261.34375 481.058594 252.261719 C 479.09375 245.960938 476.882812 239.085938 474.347656 231.476562 C 466.652344 208.402344 453.066406 189.746094 438.332031 175.183594 C 422.539062 159.472656 405.511719 148.507812 393.398438 141.800781 C 384.148438 136.644531 377.683594 134.027344 376.785156 133.699219 L 370.316406 131.164062 L 366.0625 136.644531 C 365.570312 137.300781 313.925781 202.265625 182.558594 253.488281 C 166.351562 259.789062 146.136719 265.679688 127.554688 270.179688 C 124.199219 270.996094 120.925781 271.734375 117.652344 272.46875 C 114.871094 273.125 112.167969 273.699219 109.550781 274.269531 C 108.976562 274.351562 108.484375 274.515625 107.914062 274.597656 C 94.652344 277.378906 83.765625 279.097656 77.792969 279.425781 C 77.054688 279.507812 76.320312 279.507812 75.746094 279.507812 C 70.671875 279.507812 66.988281 276.644531 64.777344 274.1875 C 63.386719 272.632812 62.324219 270.914062 61.503906 269.28125 C 60.359375 266.824219 59.703125 264.453125 59.867188 262.898438 C 61.503906 246.125 64.613281 230.25 68.789062 215.195312 C 74.4375 194.574219 82.292969 175.511719 91.789062 158.082031 C 123.546875 99.988281 173.636719 59.976562 223.320312 39.195312 Z M 80.984375 328.847656 C 80.984375 314.28125 83.765625 303.480469 87.53125 296.933594 C 92.523438 296.28125 98.417969 295.21875 104.964844 293.988281 C 103.410156 307.082031 102.511719 320.992188 102.511719 335.800781 C 102.511719 363.292969 106.113281 389.558594 112.578125 413.941406 C 101.855469 405.269531 90.398438 385.140625 84.421875 358.792969 C 82.210938 348.566406 80.984375 338.5 80.984375 328.847656 Z M 518.382812 328.847656 C 518.382812 338.417969 517.234375 348.566406 514.863281 358.792969 C 508.96875 384.976562 497.429688 404.777344 486.789062 413.613281 C 493.253906 389.230469 496.855469 363.128906 496.855469 335.71875 C 496.855469 327.863281 496.609375 320.253906 496.117188 312.890625 C 501.847656 315.425781 508.886719 316.898438 517.726562 317.144531 C 518.21875 320.828125 518.382812 324.671875 518.382812 328.847656 Z M 206.703125 327.457031 L 225.121094 327.457031 L 225.121094 364.277344 L 206.703125 364.277344 Z M 375.882812 327.457031 L 394.300781 327.457031 L 394.300781 364.277344 L 375.882812 364.277344 Z M 336.105469 315.019531 L 328.167969 298.40625 L 336.515625 294.480469 C 337.414062 294.070312 359.269531 283.761719 383.414062 283.761719 C 408.785156 283.761719 434.652344 304.542969 435.714844 305.445312 L 442.835938 311.253906 L 431.214844 325.574219 L 424.011719 319.765625 C 417.953125 314.855469 398.882812 302.253906 383.25 302.253906 C 363.199219 302.253906 344.453125 311.089844 344.289062 311.171875 Z M 216.035156 303.480469 C 197.128906 303.480469 175.273438 319.847656 175.109375 320.007812 L 167.742188 325.574219 L 156.613281 310.925781 L 163.898438 305.363281 C 164.960938 304.542969 190.824219 285.070312 216.035156 285.070312 C 240.097656 285.070312 261.867188 294.644531 262.769531 295.054688 L 271.199219 298.816406 L 263.667969 315.589844 L 255.238281 311.828125 C 254.992188 311.828125 236.003906 303.480469 216.035156 303.480469 Z M 258.757812 411.078125 L 287.570312 325 L 305.085938 330.808594 L 277.257812 413.941406 C 277.746094 422.289062 282.496094 427.933594 286.832031 427.933594 L 318.261719 427.933594 L 318.261719 446.34375 L 286.75 446.34375 C 271.28125 446.34375 258.757812 431.207031 258.757812 412.550781 Z M 253.683594 483.246094 L 345.84375 483.246094 L 345.84375 501.65625 L 253.683594 501.65625 Z M 373.511719 427.933594 C 355.09375 427.933594 373.511719 427.933594 355.09375 427.933594 L 355.09375 409.523438 L 373.511719 409.523438 Z M 428.839844 427.933594 L 428.839844 409.523438 L 447.253906 409.523438 L 447.253906 428.015625 C 446.929688 428.015625 446.765625 428.015625 446.4375 428.015625 C 429.496094 427.933594 447.011719 427.933594 428.839844 427.933594 Z M 392.007812 427.933594 L 392.007812 409.523438 L 410.421875 409.523438 L 410.421875 427.933594 C 392.007812 427.933594 410.421875 427.933594 392.007812 427.933594 Z M 355.09375 427.933594 L 355.09375 446.34375 C 340.6875 446.34375 348.710938 446.34375 344.207031 446.34375 C 342.898438 446.34375 340.6875 446.34375 336.679688 446.34375 L 336.679688 427.933594 Z M 392.007812 427.933594 L 392.007812 446.34375 C 373.59375 446.34375 392.007812 446.34375 373.59375 446.34375 L 373.59375 427.933594 Z M 428.839844 446.34375 C 410.421875 446.34375 428.839844 446.34375 410.421875 446.34375 L 410.421875 427.933594 L 428.839844 427.933594 Z M 392.007812 446.34375 L 410.421875 446.34375 L 410.421875 464.753906 C 392.007812 464.753906 410.421875 464.753906 392.007812 464.753906 Z M 355.09375 446.34375 L 373.511719 446.34375 L 373.511719 464.753906 C 355.09375 464.753906 373.511719 464.753906 355.09375 464.753906 Z M 428.839844 409.523438 C 410.421875 409.523438 428.839844 409.523438 410.421875 409.523438 L 410.421875 391.113281 L 428.839844 391.113281 Z M 392.007812 409.523438 C 373.59375 409.523438 392.007812 409.523438 373.59375 409.523438 L 373.59375 391.113281 L 392.007812 391.113281 Z M 428.839844 243.585938 C 410.421875 243.585938 428.839844 243.585938 410.421875 243.585938 L 410.421875 225.175781 L 428.921875 225.175781 Z M 392.007812 243.585938 C 373.59375 243.585938 392.007812 243.585938 373.59375 243.585938 L 373.59375 225.175781 L 392.007812 225.175781 Z M 442.097656 363.375 L 447.253906 363.375 L 447.253906 381.785156 C 446.683594 381.785156 446.191406 381.785156 445.699219 381.785156 C 443.734375 381.785156 442.261719 381.785156 441.199219 381.785156 C 433.667969 381.785156 444.472656 381.785156 428.839844 381.785156 L 428.839844 363.292969 L 442.097656 363.292969 Z M 392.007812 254.632812 L 392.007812 243.585938 L 410.421875 243.585938 L 410.421875 261.996094 C 410.261719 261.996094 410.097656 261.996094 409.933594 261.996094 C 392.5 261.996094 410.261719 261.996094 392.007812 261.996094 Z M 409.523438 215.929688 C 392.664062 215.929688 410.015625 215.929688 391.925781 215.929688 L 391.925781 197.519531 L 410.34375 197.519531 L 410.34375 215.929688 C 410.097656 215.929688 409.851562 215.929688 409.523438 215.929688 Z M 428.839844 261.996094 L 447.253906 261.996094 L 447.253906 280.40625 C 428.839844 280.40625 447.253906 280.40625 428.839844 280.40625 Z M 355.09375 252.832031 C 336.679688 252.832031 355.09375 252.832031 336.679688 252.832031 L 336.679688 234.421875 L 355.09375 234.421875 Z M 373.511719 474 L 391.925781 474 L 391.925781 492.410156 C 373.511719 492.410156 391.925781 492.410156 373.511719 492.410156 Z M 373.511719 510.902344 L 373.511719 529.3125 C 355.09375 529.3125 373.511719 529.3125 355.09375 529.3125 L 355.09375 510.820312 L 373.511719 510.820312 Z M 373.511719 510.902344 " fill-opacity="1" fill-rule="nonzero"/></g></svg>